<svg width="34" height="34" viewBox="0 0 34 34" fill="none" xmlns="http://www.w3.org/2000/svg">
<rect width="34" height="34" rx="17" fill="#282828"/>
<path d="M9.5 14.2829C9.5 14.0202 9.5 13.8888 9.51096 13.7782C9.6167 12.711 10.461 11.8667 11.5282 11.761C11.6388 11.75 11.7773 11.75 12.0542 11.75C12.1609 11.75 12.2142 11.75 12.2595 11.7473C12.838 11.7122 13.3445 11.3472 13.5606 10.8095C13.5775 10.7674 13.5934 10.7199 13.625 10.625C13.6566 10.5301 13.6725 10.4826 13.6894 10.4405C13.9055 9.90284 14.412 9.53777 14.9905 9.50274C15.0358 9.5 15.0858 9.5 15.1859 9.5H18.8141C18.9142 9.5 18.9642 9.5 19.0095 9.50274C19.588 9.53777 20.0945 9.90284 20.3106 10.4405C20.3275 10.4826 20.3434 10.5301 20.375 10.625C20.4066 10.7199 20.4225 10.7674 20.4394 10.8095C20.6555 11.3472 21.162 11.7122 21.7405 11.7473C21.7858 11.75 21.8391 11.75 21.9458 11.75C22.2227 11.75 22.3612 11.75 22.4718 11.761C23.539 11.8667 24.3833 12.711 24.489 13.7782C24.5 13.8888 24.5 14.0202 24.5 14.2829V20.15C24.5 21.4101 24.5 22.0402 24.2548 22.5215C24.039 22.9448 23.6948 23.289 23.2715 23.5048C22.7902 23.75 22.1601 23.75 20.9 23.75H13.1C11.8399 23.75 11.2098 23.75 10.7285 23.5048C10.3052 23.289 9.96095 22.9448 9.74524 22.5215C9.5 22.0402 9.5 21.4101 9.5 20.15V14.2829Z" stroke="#FFFCFC" stroke-width="2" stroke-linecap="round" stroke-linejoin="round"/>
<path d="M17 20.375C18.6569 20.375 20 19.0319 20 17.375C20 15.7181 18.6569 14.375 17 14.375C15.3431 14.375 14 15.7181 14 17.375C14 19.0319 15.3431 20.375 17 20.375Z" stroke="#FFFCFC" stroke-width="2" stroke-linecap="round" stroke-linejoin="round"/>
</svg>
